HIERARCHY
ROOT Hips
{
	OFFSET -3.958830 18.904000 13.208200
	CHANNELS 6 Xposition Yposition Zposition Zrotation Yrotation Xrotation 
	JOINT LHipJoint
	{
		OFFSET 0.000000 0.000000 0.000000
		CHANNELS 3 Zrotation Yrotation Xrotation
		JOINT LeftUpLeg
		{
			OFFSET 1.800000 -1.400000 0.085000
			CHANNELS 3 Zrotation Yrotation Xrotation
			JOINT LeftLeg
			{
				OFFSET 2.215000 -6.000000 0.000000
				CHANNELS 3 Zrotation Yrotation Xrotation
				JOINT LeftFoot
				{
					OFFSET 2.500000 -6.900000 0.000000
					CHANNELS 3 Zrotation Yrotation Xrotation
					JOINT LeftToeBase
					{
						OFFSET 0.200000 -0.500000 1.950000
						CHANNELS 3 Zrotation Yrotation Xrotation
						End Site
						{
							OFFSET 0.000000 0.000000 0.000000
						}
					}
				}
			}
		}
	}
	JOINT RHipJoint
	{
		OFFSET 0.000000 0.000000 0.000000
		CHANNELS 3 Zrotation Yrotation Xrotation
		JOINT RightUpLeg
		{
			OFFSET -1.800000 -1.400000 0.085000
			CHANNELS 3 Zrotation Yrotation Xrotation
			JOINT RightLeg
			{
				OFFSET -2.215000 -6.000000 0.000000
				CHANNELS 3 Zrotation Yrotation Xrotation
				JOINT RightFoot
				{
					OFFSET -2.500000 -6.900000 0.000000
					CHANNELS 3 Zrotation Yrotation Xrotation
					JOINT RightToeBase
					{
						OFFSET -0.200000 -0.500000 1.950000
						CHANNELS 3 Zrotation Yrotation Xrotation
						End Site
						{
							OFFSET 0.000000 0.000000 0.000000
						}
					}
				}
			}
		}
	}
	JOINT LowerBack
	{
		OFFSET 0.000000 0.000000 0.000000
		CHANNELS 3 Zrotation Yrotation Xrotation
		JOINT Spine
		{
			OFFSET -0.087000 1.940000 -0.288900
			CHANNELS 3 Zrotation Yrotation Xrotation
			JOINT Spine1
			{
				OFFSET 0.000000 1.950000 0.060000
				CHANNELS 3 Zrotation Yrotation Xrotation
				JOINT Neck
				{
					OFFSET 0.000000 0.000000 0.000000
					CHANNELS 3 Zrotation Yrotation Xrotation
					JOINT Neck1
					{
						OFFSET 0.000000 1.600000 0.340000
						CHANNELS 3 Zrotation Yrotation Xrotation
						JOINT Head
						{
							OFFSET 0.000000 1.667000 -0.240000
							CHANNELS 3 Zrotation Yrotation Xrotation
							End Site
							{
								OFFSET 0.000000 0.000000 0.000000
							}
						}
					}
				}
				JOINT LeftShoulder
				{
					OFFSET 0.000000 0.000000 0.000000
					CHANNELS 3 Zrotation Yrotation Xrotation
					JOINT LeftArm
					{
						OFFSET 2.700000 1.550000 -0.730000
						CHANNELS 3 Zrotation Yrotation Xrotation
						JOINT LeftForeArm
						{
							OFFSET 5.450000 0.000000 0.000000
							CHANNELS 3 Zrotation Yrotation Xrotation
							JOINT LeftHand
							{
								OFFSET 3.450000 0.000000 0.000000
								CHANNELS 3 Zrotation Yrotation Xrotation
								JOINT LeftHandIndex1
								{
									OFFSET 0.750000 0.000000 0.000000
									CHANNELS 3 Zrotation Yrotation Xrotation
									End Site
									{
										OFFSET 0.000000 0.000000 0.000000
									}
								}
							}
						}
					}
				}
				JOINT RightShoulder
				{
					OFFSET 0.000000 0.000000 0.000000
					CHANNELS 3 Zrotation Yrotation Xrotation
					JOINT RightArm
					{
						OFFSET -2.700000 1.550000 -0.730000
						CHANNELS 3 Zrotation Yrotation Xrotation
						JOINT RightForeArm
						{
							OFFSET -5.450000 0.000000 0.000000
							CHANNELS 3 Zrotation Yrotation Xrotation
							JOINT RightHand
							{
								OFFSET -3.450000 0.000000 0.000000
								CHANNELS 3 Zrotation Yrotation Xrotation
								JOINT RightHandIndex1
								{
									OFFSET -0.750000 0.000000 0.000000
									CHANNELS 3 Zrotation Yrotation Xrotation
									End Site
									{
										OFFSET 0.000000 0.000000 0.000000
									}
								}
							}
						}
					}
				}
			}
		}
	}
}
MOTION
Frames: 14
Frame Time: 0.016667
1.082620 11.880160 -1.103470 -66.304345 -44.985459 42.630052 -15.709502 5.859202 5.791462 -34.786137 -29.282817 -76.147835 20.301651 4.177849 -4.211542 -0.402981 1.944113 3.877197 0.237500 0.364220 0.051480 19.064969 -3.473179 8.249718 -48.085267 18.255670 -26.954457 4.298143 17.241901 -63.751312 -0.935324 -4.318827 3.131754 0.227610 0.426980 -0.179620 -4.487013 0.049137 -12.088539 11.744458 3.671961 46.214061 -19.914725 6.017424 14.642434 12.326002 -7.510543 -10.722878 -12.273881 11.007631 43.402627 1.186920 3.910630 -6.183450 -14.003005 -22.326628 13.357171 -33.316059 -3.580697 -3.479658 27.197686 -14.459800 -4.140461 -3.827689 2.972362 0.032280 0.155530 -0.168650 0.176230 -10.632813 35.363285 -7.709532 -15.395475 43.707125 -16.067010 -73.601210 58.444339 -40.451480 2.392834 -0.763592 -0.163040 0.576020 0.037980 0.076880 
1.046520 11.770110 -1.041250 -68.963777 -47.557116 42.618607 -15.595774 5.301538 5.689117 -34.848571 -30.974590 -78.136832 30.565165 3.961163 0.090819 -0.001282 2.957107 3.496749 0.362140 0.544520 0.084160 19.358399 -2.878111 8.969547 -52.569554 17.926973 -25.101608 14.209675 24.954257 -67.771844 -1.075217 -4.336426 3.138336 0.259220 0.357330 -0.163460 -4.861251 0.590380 -12.440514 15.277376 1.897755 47.269249 -22.547896 5.955238 15.394486 12.932715 -7.661105 -11.229500 -13.033989 10.450621 44.836124 2.764660 2.357030 -6.095530 -14.124024 -21.728095 13.083198 -33.114277 -3.808988 -2.667902 23.918974 -12.843242 -3.004352 -3.695030 3.085080 -0.023110 0.083100 -0.075500 0.283080 -11.733535 34.134204 -7.187164 -16.380928 41.204585 -16.270505 -80.712728 56.125082 -44.037834 2.533499 -0.842835 -0.033290 0.528390 -0.102530 0.165760 
1.040550 11.746120 -0.930940 -73.077981 -49.322967 41.904044 -15.472581 5.103318 5.597970 -34.481378 -30.399392 -78.729858 39.233722 1.705179 7.896616 0.156311 4.309652 3.033783 0.221360 0.350170 0.042130 19.540484 -2.671306 9.326619 -53.932661 18.597658 -24.539630 29.089606 32.698365 -63.028290 -1.076469 -4.500716 3.072788 0.193670 0.348660 -0.247980 -5.171143 0.980637 -12.600133 20.224283 -0.991670 50.273724 -25.579490 5.874282 15.933383 14.003575 -7.416162 -12.531074 -13.565050 8.656429 47.076157 0.958350 0.425840 -4.942200 -16.876421 -23.641092 13.945781 -31.174578 -2.751437 -2.024658 21.194931 -9.611778 -1.929516 -3.695403 2.950090 0.048560 0.064270 -0.123050 0.203940 -11.114570 35.982180 -7.000088 -17.319997 36.658015 -17.998472 -78.021430 54.745881 -40.532701 2.708044 -0.947315 -0.152940 0.578070 -0.020930 0.099170 
0.970040 11.738660 -0.869010 -71.456205 -52.005439 38.654699 -15.622094 4.905629 5.719421 -35.356942 -33.040773 -80.259845 48.480235 -1.721752 17.682136 0.559631 6.529909 2.318941 0.056670 0.128390 -0.046460 19.519077 -2.283980 9.695769 -59.600686 16.936003 -24.055348 46.249993 39.138167 -56.586388 -0.911463 -4.269924 3.142646 0.092160 0.407440 -0.294690 -5.142952 0.698875 -12.826083 19.516539 -0.972046 51.193787 -25.572071 6.050815 15.758353 13.952022 -6.683238 -13.884131 -13.279696 6.852112 49.528920 -0.086340 -1.632020 -1.181540 -18.295001 -25.965784 15.131841 -30.178598 -1.041249 -0.996979 17.086117 -6.468413 -0.894301 -3.718428 2.841174 0.056140 0.094060 -0.203070 0.158840 -9.540634 38.867671 -6.466679 -15.472283 34.206631 -18.380267 -72.311926 53.009828 -35.728119 2.903524 -1.078624 -0.241780 0.600310 0.061950 0.077520 
0.891250 11.776990 -0.783060 -71.601468 -53.770651 35.560100 -15.658977 4.890763 5.583966 -34.721204 -34.119744 -80.151537 60.222213 -5.301105 23.855160 1.123340 9.060363 1.490040 0.068900 0.085140 -0.016280 19.527131 -2.227943 9.829574 -62.483762 15.419681 -23.552122 72.430850 41.352246 -41.047398 -0.758222 -3.797996 3.227675 0.048010 0.340050 -0.285280 -5.336255 0.789341 -12.948779 20.989652 -2.650171 52.710801 -26.458744 5.916083 16.044259 13.670506 -5.547056 -14.945808 -12.127494 5.880452 54.015877 2.560160 -4.253550 -0.981240 -19.674485 -28.630217 16.446745 -28.906706 0.738301 -0.098208 12.393422 -3.207772 -0.250512 -3.633624 2.821568 0.121680 0.025400 -0.190630 0.098970 -7.517588 41.054089 -6.606834 -10.642842 33.766183 -17.804060 -68.463103 50.952647 -32.699706 3.067218 -1.135306 -0.216220 0.536750 0.084370 0.046700 
0.824040 11.834670 -0.738900 -72.177703 -56.632069 32.686457 -15.713943 5.484959 5.407246 -33.556081 -34.244056 -81.256729 71.998542 -8.733663 28.315857 1.673552 11.299311 0.755260 0.176210 0.180260 0.035980 19.371368 -2.717273 9.402831 -64.206168 13.411036 -26.391257 101.982674 32.658206 -19.831705 -0.694312 -3.410381 3.265251 0.079360 0.174100 -0.232370 -5.240239 0.556104 -12.751531 19.764474 -2.610739 55.450612 -25.892360 6.337073 15.098717 12.779974 -3.632725 -16.325804 -9.462359 5.996056 59.221405 5.595350 -4.482270 -0.951760 -20.799432 -31.122218 17.268181 -28.118369 2.144449 0.475457 8.115737 0.728250 0.020551 -3.520736 2.868604 0.215550 -0.067000 -0.100040 0.068160 -4.824966 42.822920 -6.044845 -5.138222 33.140715 -16.630622 -62.878581 49.372401 -29.492751 3.113578 -1.247935 -0.139040 0.380220 0.041080 0.002290 
0.776190 11.949610 -0.736080 -70.846087 -59.285556 27.486915 -15.908136 6.585024 5.521932 -31.952444 -32.925588 -80.883766 82.777098 -11.810710 31.881506 2.161448 13.147870 0.234123 0.278710 0.263100 0.167360 18.941543 -3.867941 8.190365 -62.837113 10.618820 -30.749281 122.937677 10.550751 -3.277585 -1.171067 -4.938758 2.718373 0.107640 0.028750 -0.189540 -4.765289 -0.302204 -12.171779 14.476138 -0.671395 59.413607 -23.256752 6.487886 14.356346 11.942332 -1.105987 -17.547290 -4.614878 4.406412 62.745908 4.977700 -3.121200 -1.747190 -22.940023 -32.910519 17.438564 -26.750567 3.934433 0.263081 6.160853 5.105599 0.021204 -3.502886 2.824797 0.292990 -0.129450 0.000040 0.043470 -1.206322 44.230048 -4.627367 -0.913007 33.229386 -15.738231 -53.706810 45.265872 -23.705108 2.997266 -1.282699 -0.089370 0.294840 -0.020360 -0.058240 
0.755050 12.049350 -0.735170 -68.522997 -60.026085 22.094500 -16.072950 7.355248 5.787105 -28.370547 -31.718329 -80.047080 91.249038 -16.224527 36.467552 2.661001 14.691733 -0.153229 0.378910 0.366090 0.294030 18.584277 -4.825426 7.078480 -60.400505 10.327874 -34.156158 129.704277 -16.489095 5.591018 -2.054900 -8.136054 1.721603 0.123720 -0.150980 -0.169450 -4.445476 -0.973413 -11.728595 10.926222 0.137266 63.065460 -20.945113 6.357607 13.330496 10.931195 1.555230 -19.083493 0.365099 0.857428 65.754603 3.238560 -3.285250 -2.454910 -25.270547 -34.199936 17.015336 -24.507551 4.782052 -0.199023 5.213492 8.189712 -0.036483 -3.456400 2.796306 0.329830 -0.212870 0.106130 0.024850 2.898439 44.428911 -2.077890 1.933621 32.842550 -15.684533 -46.845566 41.066443 -19.067192 2.843285 -1.291819 -0.006230 0.188160 -0.114500 -0.094220 
0.750500 12.154630 -0.716270 -69.280229 -62.249486 19.579156 -16.153504 8.018722 5.901426 -21.843100 -28.403387 -79.990181 96.818184 -21.567937 42.733229 3.028462 16.135797 -0.483583 0.467200 0.446630 0.435080 18.347929 -5.497445 6.202297 -56.874540 12.106705 -37.128190 126.813348 -35.814133 13.060642 -2.608691 -10.186583 1.122359 0.168360 -0.274030 -0.165690 -4.145956 -1.503349 -11.381944 8.375501 1.368334 66.774294 -18.963127 7.215705 13.069924 10.493632 2.804020 -20.165440 2.452419 -1.103117 67.526534 0.375280 -2.761070 -5.573300 -26.749458 -34.425942 15.948914 -23.011548 3.959381 -0.274827 4.328554 9.524246 -0.201967 -3.443811 2.667767 0.411540 -0.276300 0.202670 0.003550 5.118158 44.254660 0.142491 3.412363 32.231660 -16.712584 -41.945793 37.627913 -15.873063 2.697009 -1.270867 0.003550 0.192830 -0.168210 -0.152610 
0.730640 12.215430 -0.706610 -69.964667 -63.031072 19.063858 -16.226789 8.157033 6.213905 -12.408966 -26.514683 -81.494369 100.266561 -27.615634 49.822613 3.449146 17.341134 -0.708140 0.498460 0.471850 0.502790 18.216652 -5.854753 5.590371 -54.454507 12.298171 -40.082869 120.010874 -48.530560 20.424928 -2.758987 -10.874044 0.913920 0.153400 -0.340760 -0.141040 -4.009721 -1.720066 -11.291656 7.342782 1.584402 68.234202 -17.082270 8.477496 12.173789 9.211934 4.731786 -21.636887 6.271714 -3.266715 69.139202 0.411430 -1.948920 -4.539040 -28.342868 -34.402780 14.611081 -21.399315 2.666280 -0.218132 3.445851 11.031549 -0.282593 -3.493734 2.608928 0.423480 -0.293840 0.252510 -0.013930 8.942890 42.293300 4.250448 6.426312 31.406626 -17.678603 -42.106355 34.354110 -15.113613 2.613189 -1.343866 0.045910 0.133290 -0.206250 -0.173100 
0.759910 12.281530 -0.708350 -65.221395 -64.999024 14.014273 -16.422965 8.088042 6.470862 -1.526817 -23.149711 -80.302912 94.655898 -34.609722 66.496658 4.052031 19.533553 -1.117138 0.547790 0.522210 0.575230 18.056545 -5.499817 5.538595 -55.454071 13.052284 -43.305058 103.107685 -59.082052 35.051398 -2.803451 -11.169915 0.796555 0.154160 -0.431560 -0.125900 -3.762263 -2.332339 -11.432766 3.120800 3.965083 71.120793 -14.436953 9.289749 10.753691 7.997278 5.499086 -22.780285 7.402261 -4.376671 70.506922 0.027430 -1.323600 -5.532620 -29.616009 -34.261349 13.535777 -20.471662 2.603132 -0.590113 4.465475 9.275049 -0.165380 -3.463037 2.612944 0.468540 -0.341610 0.323840 -0.030850 12.721882 41.372693 7.182938 8.764770 29.136600 -18.447912 -39.343256 30.720834 -12.897620 2.550613 -1.426342 0.084210 0.091670 -0.245130 -0.198640 
0.792780 12.289930 -0.696810 -64.233669 -66.130253 14.032295 -16.614068 7.464431 6.835416 10.904861 -20.245194 -80.061294 87.197723 -39.171355 81.141751 4.533084 21.389583 -1.399674 0.595030 0.568540 0.649910 17.996343 -4.657024 5.928468 -55.830634 13.901482 -46.950311 80.637301 -61.453837 52.194799 -3.135341 -12.690410 0.386198 0.178180 -0.492160 -0.132850 -3.647422 -2.736849 -11.858038 1.235756 3.925118 71.581117 -12.988779 10.455290 10.410531 7.615754 5.454617 -23.735862 6.653826 -4.768384 72.058297 -1.493580 -1.086180 -7.170550 -29.831614 -33.502784 12.236915 -21.001260 1.155052 -0.763316 6.523916 7.502613 0.054287 -3.448799 2.611812 0.517360 -0.380500 0.381180 -0.033060 13.925711 40.335842 9.587673 11.692228 27.652528 -17.833822 -35.257647 24.466321 -9.905281 2.539288 -1.508796 0.084260 0.111180 -0.279850 -0.225260 
0.831020 12.300520 -0.712090 -62.946783 -67.311922 13.867264 -16.800421 7.068451 7.148057 20.691810 -16.577199 -78.001949 72.912254 -38.720670 98.719513 5.009354 23.591664 -1.707532 0.595610 0.552410 0.665610 17.945080 -3.991481 6.174569 -55.124782 14.072496 -51.173500 56.437693 -57.433354 68.991578 -3.578193 -15.155056 -0.211912 0.172740 -0.477520 -0.143450 -3.508163 -3.030697 -12.176878 0.015628 4.893903 72.677622 -10.695874 11.814368 8.632343 6.628142 5.355492 -23.316697 5.881270 -5.144201 71.859853 -0.392650 -1.543430 -7.795810 -30.822610 -32.600368 10.821855 -20.632300 -1.769670 -0.732687 7.603573 6.431081 0.047496 -3.474467 2.581855 0.550430 -0.390490 0.388530 -0.023010 17.336092 38.802660 10.937148 15.376110 23.631656 -16.539679 -32.325143 20.252867 -7.803916 2.576585 -1.534107 0.059030 0.147010 -0.285650 -0.234310 
0.869530 12.255780 -0.694210 -63.845908 -68.388603 15.338813 -16.871133 7.138193 7.290258 28.146275 -13.151576 -74.154862 61.760139 -35.278857 111.074983 5.099341 24.003074 -1.766207 0.620840 0.581310 0.694590 17.935737 -4.000533 6.030135 -51.454891 13.683949 -56.154133 31.830167 -47.141309 83.835989 -3.765117 -16.990847 -0.682632 0.174240 -0.505490 -0.136320 -3.500136 -3.047601 -12.176046 0.632354 4.134579 73.966434 -10.471809 12.584687 6.725212 6.366546 5.363126 -22.788210 5.076715 -5.427900 71.810352 -0.275120 -1.758850 -8.808290 -31.948962 -31.815947 9.484044 -20.387152 -4.262498 -1.382327 10.493567 4.042205 -0.031652 -3.458286 2.638591 0.562370 -0.413350 0.420490 -0.017800 19.200833 37.375339 11.442090 19.477267 18.697013 -14.440051 -27.435712 18.374414 -5.767987 2.577048 -1.510562 0.079090 0.139160 -0.311180 -0.232230 
